<mxfile host="app.diagrams.net" modified="2021-01-14T12:22:40.628Z" agent="5.0 (Windows NT 10.0; Win64; x64) AppleWebKit/537.36 (KHTML, like Gecko) Chrome/87.0.4280.141 Safari/537.36" etag="Y_qQOQrF23eEOCPxUIiO" version="14.1.3" type="github">
  <diagram id="ujY_8MnQ07Uea5fMO3YB" name="Page-1">
    <mxGraphModel dx="739" dy="751" grid="0" gridSize="10" guides="1" tooltips="0" connect="1" arrows="1" fold="1" page="0" pageScale="1" pageWidth="1169" pageHeight="827" math="0" shadow="0">
      <root>
        <mxCell id="0" />
        <mxCell id="1" parent="0" />
        <mxCell id="LKbUY8V2TAy0XI3aiCBY-46" value="&lt;font face=&quot;Times New Roman&quot;&gt;&lt;font style=&quot;font-size: 12px&quot;&gt;LoRa Node Point 4&lt;/font&gt;&lt;br&gt;&lt;/font&gt;" style="rounded=0;whiteSpace=wrap;html=1;gradientColor=#F0F0F0;" vertex="1" parent="1">
          <mxGeometry x="415" y="43" width="95" height="38" as="geometry" />
        </mxCell>
        <mxCell id="LKbUY8V2TAy0XI3aiCBY-45" value="&lt;font face=&quot;Times New Roman&quot;&gt;&lt;font style=&quot;font-size: 12px&quot;&gt;LoRa Node Point 3&lt;/font&gt;&lt;br&gt;&lt;/font&gt;" style="rounded=0;whiteSpace=wrap;html=1;gradientColor=#F0F0F0;" vertex="1" parent="1">
          <mxGeometry x="405" y="33" width="95" height="38" as="geometry" />
        </mxCell>
        <mxCell id="LKbUY8V2TAy0XI3aiCBY-44" value="&lt;font face=&quot;Times New Roman&quot;&gt;&lt;font style=&quot;font-size: 12px&quot;&gt;LoRa Node Point 2&lt;/font&gt;&lt;br&gt;&lt;/font&gt;" style="rounded=0;whiteSpace=wrap;html=1;gradientColor=#F0F0F0;" vertex="1" parent="1">
          <mxGeometry x="395" y="23" width="95" height="38" as="geometry" />
        </mxCell>
        <mxCell id="LKbUY8V2TAy0XI3aiCBY-43" value="&lt;font face=&quot;Times New Roman&quot;&gt;&lt;font style=&quot;font-size: 12px&quot;&gt;STM32F0 (4)&lt;/font&gt;&lt;br&gt;&lt;/font&gt;" style="rounded=0;whiteSpace=wrap;html=1;gradientColor=#F0F0F0;" vertex="1" parent="1">
          <mxGeometry x="428" y="-42" width="73" height="38" as="geometry" />
        </mxCell>
        <mxCell id="LKbUY8V2TAy0XI3aiCBY-42" value="&lt;font face=&quot;Times New Roman&quot;&gt;&lt;font style=&quot;font-size: 12px&quot;&gt;STM32F0 (3)&lt;/font&gt;&lt;br&gt;&lt;/font&gt;" style="rounded=0;whiteSpace=wrap;html=1;gradientColor=#F0F0F0;" vertex="1" parent="1">
          <mxGeometry x="414" y="-52" width="73" height="38" as="geometry" />
        </mxCell>
        <mxCell id="LKbUY8V2TAy0XI3aiCBY-41" value="&lt;font face=&quot;Times New Roman&quot;&gt;&lt;font style=&quot;font-size: 12px&quot;&gt;STM32F0 (2)&lt;/font&gt;&lt;br&gt;&lt;/font&gt;" style="rounded=0;whiteSpace=wrap;html=1;gradientColor=#F0F0F0;" vertex="1" parent="1">
          <mxGeometry x="400" y="-62" width="73" height="38" as="geometry" />
        </mxCell>
        <mxCell id="LKbUY8V2TAy0XI3aiCBY-40" value="&lt;font face=&quot;Times New Roman&quot;&gt;&lt;font style=&quot;font-size: 12px&quot;&gt;Van điện từ 4&lt;/font&gt;&lt;br&gt;&lt;/font&gt;" style="rounded=0;whiteSpace=wrap;html=1;gradientColor=#F0F0F0;" vertex="1" parent="1">
          <mxGeometry x="687" y="-42" width="70" height="38" as="geometry" />
        </mxCell>
        <mxCell id="LKbUY8V2TAy0XI3aiCBY-39" value="&lt;font face=&quot;Times New Roman&quot;&gt;&lt;font style=&quot;font-size: 12px&quot;&gt;Van điện từ 3&lt;/font&gt;&lt;br&gt;&lt;/font&gt;" style="rounded=0;whiteSpace=wrap;html=1;gradientColor=#F0F0F0;" vertex="1" parent="1">
          <mxGeometry x="677" y="-52" width="70" height="38" as="geometry" />
        </mxCell>
        <mxCell id="LKbUY8V2TAy0XI3aiCBY-38" value="&lt;font face=&quot;Times New Roman&quot;&gt;&lt;font style=&quot;font-size: 12px&quot;&gt;Van điện từ 2&lt;/font&gt;&lt;br&gt;&lt;/font&gt;" style="rounded=0;whiteSpace=wrap;html=1;gradientColor=#F0F0F0;" vertex="1" parent="1">
          <mxGeometry x="667" y="-62" width="70" height="38" as="geometry" />
        </mxCell>
        <mxCell id="LKbUY8V2TAy0XI3aiCBY-34" value="&lt;font face=&quot;Times New Roman&quot;&gt;&lt;font style=&quot;font-size: 12px&quot;&gt;Mạch công suất 4&lt;/font&gt;&lt;br&gt;&lt;/font&gt;" style="rounded=0;whiteSpace=wrap;html=1;gradientColor=#F0F0F0;" vertex="1" parent="1">
          <mxGeometry x="547" y="-42" width="92" height="38" as="geometry" />
        </mxCell>
        <mxCell id="LKbUY8V2TAy0XI3aiCBY-33" value="&lt;font face=&quot;Times New Roman&quot;&gt;&lt;font style=&quot;font-size: 12px&quot;&gt;Mạch công suất 3&lt;/font&gt;&lt;br&gt;&lt;/font&gt;" style="rounded=0;whiteSpace=wrap;html=1;gradientColor=#F0F0F0;" vertex="1" parent="1">
          <mxGeometry x="537" y="-52" width="92" height="38" as="geometry" />
        </mxCell>
        <mxCell id="LKbUY8V2TAy0XI3aiCBY-32" value="&lt;font face=&quot;Times New Roman&quot;&gt;&lt;font style=&quot;font-size: 12px&quot;&gt;Mạch công suất 2&lt;/font&gt;&lt;br&gt;&lt;/font&gt;" style="rounded=0;whiteSpace=wrap;html=1;gradientColor=#F0F0F0;" vertex="1" parent="1">
          <mxGeometry x="527" y="-62" width="92" height="38" as="geometry" />
        </mxCell>
        <mxCell id="LKbUY8V2TAy0XI3aiCBY-28" value="&lt;font face=&quot;Times New Roman&quot;&gt;&lt;font style=&quot;font-size: 12px&quot;&gt;Cảm biến 4&lt;/font&gt;&lt;br&gt;&lt;/font&gt;" style="rounded=0;whiteSpace=wrap;html=1;gradientColor=#F0F0F0;" vertex="1" parent="1">
          <mxGeometry x="415" y="-126" width="63" height="34" as="geometry" />
        </mxCell>
        <mxCell id="LKbUY8V2TAy0XI3aiCBY-27" value="&lt;font face=&quot;Times New Roman&quot;&gt;&lt;font style=&quot;font-size: 12px&quot;&gt;Cảm biến 3&lt;/font&gt;&lt;br&gt;&lt;/font&gt;" style="rounded=0;whiteSpace=wrap;html=1;gradientColor=#F0F0F0;" vertex="1" parent="1">
          <mxGeometry x="405" y="-136" width="63" height="34" as="geometry" />
        </mxCell>
        <mxCell id="LKbUY8V2TAy0XI3aiCBY-26" value="&lt;font face=&quot;Times New Roman&quot;&gt;&lt;font style=&quot;font-size: 12px&quot;&gt;Cảm biến 2&lt;/font&gt;&lt;br&gt;&lt;/font&gt;" style="rounded=0;whiteSpace=wrap;html=1;gradientColor=#F0F0F0;" vertex="1" parent="1">
          <mxGeometry x="395" y="-146" width="63" height="34" as="geometry" />
        </mxCell>
        <mxCell id="YVLH9a-Lpg27o_2goIA8-1" value="&lt;font face=&quot;Times New Roman&quot; style=&quot;font-size: 12px&quot;&gt;Nguồn&lt;br&gt;điều khiển&lt;br&gt;&lt;/font&gt;" style="rounded=0;whiteSpace=wrap;html=1;shadow=0;glass=0;sketch=0;gradientColor=#F0F0F0;" parent="1" vertex="1">
          <mxGeometry x="310" y="-155" width="51" height="420" as="geometry" />
        </mxCell>
        <mxCell id="cWBtTiU0TXfpDyDzGOIH-2" value="&lt;font face=&quot;Times New Roman&quot;&gt;&lt;font style=&quot;font-size: 12px&quot;&gt;LoRa Node Point 1&lt;/font&gt;&lt;br&gt;&lt;/font&gt;" style="rounded=0;whiteSpace=wrap;html=1;gradientColor=#F0F0F0;" parent="1" vertex="1">
          <mxGeometry x="385" y="13" width="95" height="38" as="geometry" />
        </mxCell>
        <mxCell id="cWBtTiU0TXfpDyDzGOIH-3" value="&lt;font face=&quot;Times New Roman&quot;&gt;&lt;font style=&quot;font-size: 12px&quot;&gt;LoRa Node Pump&lt;/font&gt;&lt;br&gt;&lt;/font&gt;" style="rounded=0;whiteSpace=wrap;html=1;gradientColor=#F0F0F0;" parent="1" vertex="1">
          <mxGeometry x="385" y="226" width="59" height="38" as="geometry" />
        </mxCell>
        <mxCell id="cWBtTiU0TXfpDyDzGOIH-4" value="&lt;font face=&quot;Times New Roman&quot;&gt;&lt;font style=&quot;font-size: 12px&quot;&gt;LoRa Gateway&lt;/font&gt;&lt;br&gt;&lt;/font&gt;" style="rounded=0;whiteSpace=wrap;html=1;gradientColor=#F0F0F0;" parent="1" vertex="1">
          <mxGeometry x="386" y="119.5" width="57" height="38" as="geometry" />
        </mxCell>
        <mxCell id="cWBtTiU0TXfpDyDzGOIH-6" value="&lt;font face=&quot;Times New Roman&quot;&gt;&lt;font style=&quot;font-size: 12px&quot;&gt;Cảm biến 1&lt;/font&gt;&lt;br&gt;&lt;/font&gt;" style="rounded=0;whiteSpace=wrap;html=1;gradientColor=#F0F0F0;" parent="1" vertex="1">
          <mxGeometry x="385" y="-156" width="63" height="34" as="geometry" />
        </mxCell>
        <mxCell id="cWBtTiU0TXfpDyDzGOIH-7" value="&lt;font face=&quot;Times New Roman&quot;&gt;&lt;font style=&quot;font-size: 12px&quot;&gt;STM32F0&lt;/font&gt;&lt;br&gt;&lt;/font&gt;" style="rounded=0;whiteSpace=wrap;html=1;gradientColor=#F0F0F0;" parent="1" vertex="1">
          <mxGeometry x="510" y="226" width="57" height="38" as="geometry" />
        </mxCell>
        <mxCell id="cWBtTiU0TXfpDyDzGOIH-12" value="&lt;font face=&quot;Times New Roman&quot;&gt;&lt;font style=&quot;font-size: 12px&quot;&gt;Van điện từ 1&lt;/font&gt;&lt;br&gt;&lt;/font&gt;" style="rounded=0;whiteSpace=wrap;html=1;gradientColor=#F0F0F0;" parent="1" vertex="1">
          <mxGeometry x="657" y="-72" width="70" height="38" as="geometry" />
        </mxCell>
        <mxCell id="cWBtTiU0TXfpDyDzGOIH-20" value="" style="endArrow=classic;html=1;entryX=0;entryY=0.5;entryDx=0;entryDy=0;" parent="1" target="cWBtTiU0TXfpDyDzGOIH-2" edge="1">
          <mxGeometry width="50" height="50" relative="1" as="geometry">
            <mxPoint x="361.4" y="32.040000000000006" as="sourcePoint" />
            <mxPoint x="379" y="26" as="targetPoint" />
          </mxGeometry>
        </mxCell>
        <mxCell id="cWBtTiU0TXfpDyDzGOIH-21" value="" style="endArrow=classic;html=1;entryX=0;entryY=0.5;entryDx=0;entryDy=0;" parent="1" edge="1">
          <mxGeometry width="50" height="50" relative="1" as="geometry">
            <mxPoint x="361.4" y="138.52" as="sourcePoint" />
            <mxPoint x="386" y="138.36000000000004" as="targetPoint" />
          </mxGeometry>
        </mxCell>
        <mxCell id="cWBtTiU0TXfpDyDzGOIH-24" value="Giao tiếp LoRa (x4)" style="text;html=1;strokeColor=none;align=center;verticalAlign=middle;whiteSpace=wrap;rounded=0;fontFamily=Times New Roman;rotation=0;fontStyle=0" parent="1" vertex="1">
          <mxGeometry x="418.5" y="90" width="60" height="20" as="geometry" />
        </mxCell>
        <mxCell id="cWBtTiU0TXfpDyDzGOIH-27" value="" style="endArrow=classic;startArrow=classic;html=1;entryX=0.5;entryY=1;entryDx=0;entryDy=0;dashed=1;" parent="1" edge="1">
          <mxGeometry width="50" height="50" relative="1" as="geometry">
            <mxPoint x="414.51" y="119.5" as="sourcePoint" />
            <mxPoint x="414.26" y="51" as="targetPoint" />
          </mxGeometry>
        </mxCell>
        <mxCell id="cWBtTiU0TXfpDyDzGOIH-28" value="Giao tiếp LoRa (x1)" style="text;html=1;strokeColor=none;fillColor=none;align=center;verticalAlign=middle;whiteSpace=wrap;rounded=0;fontFamily=Times New Roman;rotation=0;" parent="1" vertex="1">
          <mxGeometry x="420" y="181" width="52" height="20" as="geometry" />
        </mxCell>
        <mxCell id="cWBtTiU0TXfpDyDzGOIH-29" value="&lt;font face=&quot;Times New Roman&quot;&gt;ESP8266&lt;br&gt;&lt;/font&gt;" style="rounded=0;whiteSpace=wrap;html=1;gradientColor=#F0F0F0;" parent="1" vertex="1">
          <mxGeometry x="510" y="119.5" width="57" height="38" as="geometry" />
        </mxCell>
        <mxCell id="cWBtTiU0TXfpDyDzGOIH-30" value="&lt;font face=&quot;Times New Roman&quot;&gt;Điện thoại&lt;br&gt;&lt;/font&gt;" style="rounded=0;whiteSpace=wrap;html=1;gradientColor=#F0F0F0;" parent="1" vertex="1">
          <mxGeometry x="690" y="119.5" width="57" height="38" as="geometry" />
        </mxCell>
        <mxCell id="cWBtTiU0TXfpDyDzGOIH-31" value="" style="endArrow=classic;startArrow=classic;html=1;fontFamily=Times New Roman;entryX=0;entryY=0.5;entryDx=0;entryDy=0;exitX=1;exitY=0.5;exitDx=0;exitDy=0;" parent="1" source="cWBtTiU0TXfpDyDzGOIH-4" target="cWBtTiU0TXfpDyDzGOIH-29" edge="1">
          <mxGeometry width="50" height="50" relative="1" as="geometry">
            <mxPoint x="443" y="140" as="sourcePoint" />
            <mxPoint x="474" y="140" as="targetPoint" />
          </mxGeometry>
        </mxCell>
        <mxCell id="cWBtTiU0TXfpDyDzGOIH-32" value="" style="endArrow=classic;startArrow=classic;html=1;fontFamily=Times New Roman;entryX=0;entryY=0.5;entryDx=0;entryDy=0;exitX=1;exitY=0.5;exitDx=0;exitDy=0;" parent="1" edge="1">
          <mxGeometry width="50" height="50" relative="1" as="geometry">
            <mxPoint x="567" y="138.26" as="sourcePoint" />
            <mxPoint x="600" y="138.26" as="targetPoint" />
          </mxGeometry>
        </mxCell>
        <mxCell id="cWBtTiU0TXfpDyDzGOIH-34" value="" style="endArrow=classic;html=1;entryX=0;entryY=0.5;entryDx=0;entryDy=0;" parent="1" edge="1">
          <mxGeometry width="50" height="50" relative="1" as="geometry">
            <mxPoint x="361" y="244.74999999999997" as="sourcePoint" />
            <mxPoint x="384.6" y="244.71" as="targetPoint" />
          </mxGeometry>
        </mxCell>
        <mxCell id="LKbUY8V2TAy0XI3aiCBY-1" value="&lt;font face=&quot;Times New Roman&quot;&gt;Cloud&lt;br&gt;&lt;/font&gt;" style="rounded=0;whiteSpace=wrap;html=1;gradientColor=#F0F0F0;" vertex="1" parent="1">
          <mxGeometry x="600" y="119.5" width="57" height="38" as="geometry" />
        </mxCell>
        <mxCell id="LKbUY8V2TAy0XI3aiCBY-4" value="" style="endArrow=classic;startArrow=classic;html=1;fontFamily=Times New Roman;entryX=0;entryY=0.5;entryDx=0;entryDy=0;exitX=1;exitY=0.5;exitDx=0;exitDy=0;" edge="1" parent="1">
          <mxGeometry width="50" height="50" relative="1" as="geometry">
            <mxPoint x="657" y="138.32999999999987" as="sourcePoint" />
            <mxPoint x="690" y="138.32999999999987" as="targetPoint" />
          </mxGeometry>
        </mxCell>
        <mxCell id="LKbUY8V2TAy0XI3aiCBY-5" value="&lt;font face=&quot;Times New Roman&quot;&gt;&lt;font style=&quot;font-size: 12px&quot;&gt;L298&lt;/font&gt;&lt;br&gt;&lt;/font&gt;" style="rounded=0;whiteSpace=wrap;html=1;gradientColor=#F0F0F0;" vertex="1" parent="1">
          <mxGeometry x="600" y="226" width="57" height="38" as="geometry" />
        </mxCell>
        <mxCell id="LKbUY8V2TAy0XI3aiCBY-6" value="" style="endArrow=classic;html=1;exitX=1;exitY=0.5;exitDx=0;exitDy=0;entryX=0;entryY=0.5;entryDx=0;entryDy=0;" edge="1" parent="1" target="LKbUY8V2TAy0XI3aiCBY-5">
          <mxGeometry width="50" height="50" relative="1" as="geometry">
            <mxPoint x="568" y="245" as="sourcePoint" />
            <mxPoint x="608" y="217" as="targetPoint" />
          </mxGeometry>
        </mxCell>
        <mxCell id="LKbUY8V2TAy0XI3aiCBY-7" value="&lt;font face=&quot;Times New Roman&quot;&gt;&lt;font style=&quot;font-size: 12px&quot;&gt;Bơm&lt;/font&gt;&lt;br&gt;&lt;/font&gt;" style="rounded=0;whiteSpace=wrap;html=1;gradientColor=#F0F0F0;" vertex="1" parent="1">
          <mxGeometry x="689" y="226" width="57" height="38" as="geometry" />
        </mxCell>
        <mxCell id="LKbUY8V2TAy0XI3aiCBY-8" value="" style="endArrow=classic;html=1;exitX=1;exitY=0.5;exitDx=0;exitDy=0;entryX=0;entryY=0.5;entryDx=0;entryDy=0;" edge="1" parent="1" target="LKbUY8V2TAy0XI3aiCBY-7">
          <mxGeometry width="50" height="50" relative="1" as="geometry">
            <mxPoint x="657" y="245" as="sourcePoint" />
            <mxPoint x="697" y="217" as="targetPoint" />
          </mxGeometry>
        </mxCell>
        <mxCell id="LKbUY8V2TAy0XI3aiCBY-9" value="" style="endArrow=classic;startArrow=classic;html=1;entryX=0.5;entryY=1;entryDx=0;entryDy=0;dashed=1;" edge="1" parent="1">
          <mxGeometry width="50" height="50" relative="1" as="geometry">
            <mxPoint x="414.46" y="226" as="sourcePoint" />
            <mxPoint x="414.21" y="157.5" as="targetPoint" />
          </mxGeometry>
        </mxCell>
        <mxCell id="LKbUY8V2TAy0XI3aiCBY-10" value="&lt;font face=&quot;Times New Roman&quot;&gt;&lt;font style=&quot;font-size: 12px&quot;&gt;Mạch công suất 1&lt;/font&gt;&lt;br&gt;&lt;/font&gt;" style="rounded=0;whiteSpace=wrap;html=1;gradientColor=#F0F0F0;" vertex="1" parent="1">
          <mxGeometry x="517" y="-72" width="92" height="38" as="geometry" />
        </mxCell>
        <mxCell id="LKbUY8V2TAy0XI3aiCBY-11" value="" style="endArrow=classic;startArrow=classic;html=1;fontFamily=Times New Roman;entryX=0;entryY=0.5;entryDx=0;entryDy=0;exitX=1;exitY=0.5;exitDx=0;exitDy=0;" edge="1" parent="1" target="cWBtTiU0TXfpDyDzGOIH-7">
          <mxGeometry width="50" height="50" relative="1" as="geometry">
            <mxPoint x="443" y="244.66" as="sourcePoint" />
            <mxPoint x="476" y="244.66" as="targetPoint" />
          </mxGeometry>
        </mxCell>
        <mxCell id="LKbUY8V2TAy0XI3aiCBY-19" value="&lt;font face=&quot;Times New Roman&quot;&gt;&lt;font style=&quot;font-size: 12px&quot;&gt;STM32F0 (1)&lt;/font&gt;&lt;br&gt;&lt;/font&gt;" style="rounded=0;whiteSpace=wrap;html=1;gradientColor=#F0F0F0;" vertex="1" parent="1">
          <mxGeometry x="386" y="-72" width="73" height="38" as="geometry" />
        </mxCell>
        <mxCell id="LKbUY8V2TAy0XI3aiCBY-47" value="" style="endArrow=classic;html=1;entryX=0;entryY=0.5;entryDx=0;entryDy=0;" edge="1" parent="1">
          <mxGeometry width="50" height="50" relative="1" as="geometry">
            <mxPoint x="361" y="-51.96000000000015" as="sourcePoint" />
            <mxPoint x="384.6" y="-52.000000000000114" as="targetPoint" />
          </mxGeometry>
        </mxCell>
        <mxCell id="LKbUY8V2TAy0XI3aiCBY-49" value="" style="endArrow=classic;html=1;entryX=0;entryY=0.5;entryDx=0;entryDy=0;" edge="1" parent="1">
          <mxGeometry width="50" height="50" relative="1" as="geometry">
            <mxPoint x="361.0000000000001" y="-139.10000000000014" as="sourcePoint" />
            <mxPoint x="384.6" y="-139.1400000000001" as="targetPoint" />
          </mxGeometry>
        </mxCell>
        <mxCell id="LKbUY8V2TAy0XI3aiCBY-50" value="" style="endArrow=classic;html=1;exitX=0.425;exitY=0.984;exitDx=0;exitDy=0;exitPerimeter=0;" edge="1" parent="1" source="cWBtTiU0TXfpDyDzGOIH-6">
          <mxGeometry width="50" height="50" relative="1" as="geometry">
            <mxPoint x="371.0000000000001" y="-129.10000000000014" as="sourcePoint" />
            <mxPoint x="412" y="-73" as="targetPoint" />
          </mxGeometry>
        </mxCell>
        <mxCell id="LKbUY8V2TAy0XI3aiCBY-51" value="Analog (x4)" style="text;html=1;strokeColor=none;align=center;verticalAlign=middle;whiteSpace=wrap;rounded=0;fontFamily=Times New Roman;rotation=0;fontStyle=0" vertex="1" parent="1">
          <mxGeometry x="407.5" y="-92" width="82" height="20" as="geometry" />
        </mxCell>
        <mxCell id="LKbUY8V2TAy0XI3aiCBY-53" value="" style="endArrow=classic;html=1;entryX=0;entryY=0.5;entryDx=0;entryDy=0;" edge="1" parent="1" target="LKbUY8V2TAy0XI3aiCBY-10">
          <mxGeometry width="50" height="50" relative="1" as="geometry">
            <mxPoint x="459.0000000000001" y="-53.160000000000196" as="sourcePoint" />
            <mxPoint x="482.6" y="-53.20000000000016" as="targetPoint" />
          </mxGeometry>
        </mxCell>
        <mxCell id="LKbUY8V2TAy0XI3aiCBY-58" value="" style="endArrow=classic;html=1;entryX=0;entryY=0.5;entryDx=0;entryDy=0;" edge="1" parent="1" target="cWBtTiU0TXfpDyDzGOIH-12">
          <mxGeometry width="50" height="50" relative="1" as="geometry">
            <mxPoint x="609.0000000000002" y="-53.16000000000014" as="sourcePoint" />
            <mxPoint x="632.6" y="-53.2000000000001" as="targetPoint" />
          </mxGeometry>
        </mxCell>
        <mxCell id="LKbUY8V2TAy0XI3aiCBY-60" value="" style="endArrow=classic;startArrow=classic;html=1;fontFamily=Times New Roman;entryX=0.319;entryY=0.977;entryDx=0;entryDy=0;entryPerimeter=0;" edge="1" parent="1" target="LKbUY8V2TAy0XI3aiCBY-19">
          <mxGeometry width="50" height="50" relative="1" as="geometry">
            <mxPoint x="409" y="13" as="sourcePoint" />
            <mxPoint x="520" y="148.5" as="targetPoint" />
          </mxGeometry>
        </mxCell>
        <mxCell id="LKbUY8V2TAy0XI3aiCBY-61" value="UART (x4)" style="text;html=1;strokeColor=none;align=center;verticalAlign=middle;whiteSpace=wrap;rounded=0;fontFamily=Times New Roman;rotation=0;fontStyle=0" vertex="1" parent="1">
          <mxGeometry x="402.5" y="-7" width="82" height="20" as="geometry" />
        </mxCell>
        <mxCell id="LKbUY8V2TAy0XI3aiCBY-62" value="UART (x1)" style="text;html=1;strokeColor=none;align=center;verticalAlign=middle;whiteSpace=wrap;rounded=0;fontFamily=Times New Roman;rotation=0;fontStyle=0" vertex="1" parent="1">
          <mxGeometry x="435" y="137.5" width="82" height="20" as="geometry" />
        </mxCell>
        <mxCell id="LKbUY8V2TAy0XI3aiCBY-63" value="UART (x1)" style="text;html=1;strokeColor=none;align=center;verticalAlign=middle;whiteSpace=wrap;rounded=0;fontFamily=Times New Roman;rotation=0;fontStyle=0" vertex="1" parent="1">
          <mxGeometry x="435" y="244" width="82" height="20" as="geometry" />
        </mxCell>
        <mxCell id="LKbUY8V2TAy0XI3aiCBY-64" value="WiFi" style="text;html=1;strokeColor=none;align=center;verticalAlign=middle;whiteSpace=wrap;rounded=0;fontFamily=Times New Roman;rotation=0;fontStyle=0" vertex="1" parent="1">
          <mxGeometry x="542" y="137.5" width="82" height="20" as="geometry" />
        </mxCell>
      </root>
    </mxGraphModel>
  </diagram>
</mxfile>
